<svg xmlns="http://www.w3.org/2000/svg" width="25" height="25" id="magic"><g fill="#fff" transform="translate(3.996 -1031.366)"><circle cx="8.504" cy="1043.866" r="12.5" fill="#ef4c45" fill-rule="evenodd"></circle><path style="line-height:normal;text-indent:0;text-align:start;text-decoration-line:none;text-decoration-style:solid;text-decoration-color:#000;text-transform:none;block-progression:tb;isolation:auto;mix-blend-mode:normal" fill="#df2209" d="M16.986 24.164a12.5 12.5 0 0 0 .043-.014 12.5 12.5 0 0 0 1.14-.51 12.5 12.5 0 0 0 1.085-.622 12.5 12.5 0 0 0 1.016-.727 12.5 12.5 0 0 0 .939-.824 12.5 12.5 0 0 0 .852-.914 12.5 12.5 0 0 0 .755-.994 12.5 12.5 0 0 0 .655-1.067 12.5 12.5 0 0 0 .543-1.125 12.5 12.5 0 0 0 .427-1.174 12.5 12.5 0 0 0 .05-.195L13.985 5.494 11.754 7.93 10.6 6.775l-.018.1-.01-.01-.992-.06-.037.205.037.053.088 1.722-3.535-.62 2.515 2.515-2.83 1.97 3.067 3.067-.051.295 8.152 8.152z" color="#000" font-family="sans-serif" font-weight="400" transform="translate(-3.996 1031.366)"></path><path style="line-height:normal;text-indent:0;text-align:start;text-decoration-line:none;text-decoration-style:solid;text-decoration-color:#000;text-transform:none;block-progression:tb;isolation:auto;mix-blend-mode:normal" d="M9.486.994 7.055 3.646 6.1 2.276l-.026.14-.002-.05-.992-.061-.037.205.037.053.088 1.722-3.535-.62L4.29 6.08 1.318 8.15l3.62-.187-.604 3.549L6.74 8.865 8.795 11.8l-.137-2.793 5.274 6 .75-.66-5.264-5.99 2.738.47-2.644-2.428 2.937-2.056-3.58.174.617-3.522ZM6.162 4.115l.785 1.127.963-1.05-.242 1.384 1.367-.066-1.117.783 1.059.973-1.418-.245.066 1.368-.785-1.123-.945 1.04.238-1.406-1.373.07 1.13-.786-1.029-.936 1.371.24-.07-1.373Z" color="#000" font-family="sans-serif" font-weight="400" overflow="visible" transform="translate(.504 1035.866)"></path></g></svg>